<svg width="516" height="425" viewBox="0 0 516 425" fill="none" xmlns="http://www.w3.org/2000/svg">
<path d="M405.577 230.277C397.338 219.494 385.342 212.207 371.975 209.866C383.817 206.402 394.305 199.376 402.014 189.743C409.741 179.622 413.722 167.135 413.279 154.409C413.342 142.94 409.991 131.712 403.651 122.155C397.044 112.278 387.665 104.573 376.693 100.011C363.374 94.4594 349.046 91.7381 334.619 92.0198H234.777V333.97H339.047C353.706 334.328 368.265 331.469 381.699 325.594C392.918 320.761 402.487 312.765 409.235 302.583C415.739 292.386 419.089 280.496 418.863 268.404C419.005 254.536 414.307 241.053 405.577 230.277Z" fill="#00B1EB"/>
<path d="M157.764 318.372C139.33 308.157 123.996 293.155 113.379 274.95C102.395 256.117 96.7369 234.651 97.0116 212.85C96.7077 191.045 102.367 169.572 113.379 150.75C124.011 132.63 139.348 117.726 157.764 107.617C176.543 97.185 197.709 91.8104 219.19 92.0195C240.707 91.7625 261.917 97.1396 280.713 107.617C299.049 117.732 314.291 132.642 324.809 150.75C335.717 169.606 341.307 191.068 340.984 212.85C341.278 234.629 335.69 256.083 324.809 274.95C314.222 293.039 298.956 307.939 280.616 318.084C261.833 328.503 240.669 333.877 219.19 333.681C197.735 333.978 176.57 328.704 157.764 318.372Z" fill="#FF0058"/>
<path d="M288.713 318.374C307.145 308.234 322.458 293.253 333.001 275.049C343.978 256.041 349.601 234.414 349.273 212.467C349.565 190.646 343.942 169.153 333.001 150.27C322.417 132.155 307.153 117.223 288.809 107.041C273.029 98.292 255.5 93.1616 237.492 92.0213H219.007V333.971H233.063C252.579 333.206 271.642 327.863 288.713 318.374Z" fill="#0E0060"/>
</svg>
