<svg xmlns="http://www.w3.org/2000/svg" width="1291" height="425" viewBox="0 0 1291 425" fill="none">
<path d="M405.577 230.277C397.338 219.494 385.342 212.207 371.975 209.866C383.817 206.402 394.305 199.376 402.014 189.743C409.741 179.622 413.722 167.135 413.279 154.409C413.342 142.94 409.991 131.712 403.651 122.155C397.044 112.278 387.665 104.573 376.693 100.011C363.374 94.4594 349.046 91.7381 334.619 92.0198H234.777V333.97H339.047C353.706 334.328 368.265 331.469 381.699 325.594C392.918 320.761 402.487 312.765 409.235 302.583C415.739 292.386 419.089 280.496 418.863 268.404C419.005 254.536 414.307 241.053 405.577 230.277Z" fill="#00B1EB"/>
<path d="M157.764 318.372C139.33 308.157 123.996 293.155 113.379 274.95C102.395 256.117 96.7369 234.651 97.0116 212.85C96.7077 191.045 102.367 169.572 113.379 150.75C124.011 132.63 139.348 117.726 157.764 107.617C176.543 97.185 197.709 91.8104 219.19 92.0195C240.707 91.7625 261.917 97.1396 280.713 107.617C299.049 117.732 314.291 132.642 324.809 150.75C335.717 169.606 341.307 191.068 340.984 212.85C341.278 234.629 335.69 256.083 324.809 274.95C314.222 293.039 298.956 307.939 280.616 318.084C261.833 328.503 240.669 333.877 219.19 333.681C197.735 333.978 176.57 328.704 157.764 318.372Z" fill="#FF0058"/>
<path d="M288.713 318.374C307.145 308.234 322.458 293.253 333.001 275.049C343.978 256.041 349.601 234.414 349.273 212.467C349.565 190.646 343.942 169.153 333.001 150.27C322.417 132.155 307.153 117.223 288.809 107.041C273.029 98.292 255.5 93.1616 237.492 92.0213H219.007V333.971H233.063C252.579 333.206 271.642 327.863 288.713 318.374Z" fill="#0E0060"/>
<path d="M556.311 193.788C548.201 193.788 540.747 191.904 533.948 188.136C527.23 184.367 521.865 179.125 517.851 172.408C513.919 165.609 511.953 157.991 511.953 149.553C511.953 141.116 513.919 133.539 517.851 126.821C521.865 120.104 527.23 114.862 533.948 111.094C540.747 107.325 548.201 105.441 556.311 105.441C564.42 105.441 571.834 107.325 578.551 111.094C585.35 114.862 590.674 120.104 594.524 126.821C598.456 133.539 600.422 141.116 600.422 149.553C600.422 157.991 598.456 165.609 594.524 172.408C590.592 179.125 585.268 184.367 578.551 188.136C571.834 191.904 564.42 193.788 556.311 193.788ZM556.311 174.619C563.192 174.619 568.68 172.326 572.776 167.739C576.953 163.151 579.042 157.089 579.042 149.553C579.042 141.935 576.953 135.873 572.776 131.368C568.68 126.781 563.192 124.487 556.311 124.487C549.348 124.487 543.777 126.74 539.6 131.245C535.504 135.75 533.456 141.853 533.456 149.553C533.456 157.171 535.504 163.274 539.6 167.861C543.777 172.367 549.348 174.619 556.311 174.619Z" fill="#131313"/>
<path d="M677.849 134.44C677.849 139.437 676.703 144.024 674.409 148.202C672.115 152.297 668.593 155.615 663.842 158.154C659.091 160.694 653.193 161.963 646.148 161.963H633.123V192.928H612.112V106.67H646.148C653.029 106.67 658.845 107.858 663.596 110.233C668.347 112.609 671.91 115.886 674.286 120.063C676.662 124.241 677.849 129.033 677.849 134.44ZM644.551 145.253C648.564 145.253 651.554 144.311 653.52 142.426C655.486 140.542 656.469 137.88 656.469 134.44C656.469 130.999 655.486 128.337 653.52 126.453C651.554 124.569 648.564 123.627 644.551 123.627H633.123V145.253H644.551Z" fill="#131313"/>
<path d="M709.799 123.504V140.952H737.938V157.171H709.799V176.094H741.624V192.928H688.788V106.67H741.624V123.504H709.799Z" fill="#131313"/>
<path d="M832.43 192.928H811.418L776.276 139.723V192.928H755.265V106.67H776.276L811.418 160.12V106.67H832.43V192.928Z" fill="#131313"/>
<path d="M906.015 106.67C915.108 106.67 923.053 108.472 929.852 112.077C936.651 115.681 941.894 120.76 945.58 127.313C949.348 133.784 951.233 141.28 951.233 149.799C951.233 158.236 949.348 165.732 945.58 172.285C941.894 178.838 936.611 183.917 929.73 187.521C922.931 191.126 915.026 192.928 906.015 192.928H873.699V106.67H906.015ZM904.663 174.742C912.609 174.742 918.794 172.572 923.217 168.23C927.641 163.888 929.852 157.745 929.852 149.799C929.852 141.853 927.641 135.668 923.217 131.245C918.794 126.821 912.609 124.61 904.663 124.61H894.71V174.742H904.663Z" fill="#131313"/>
<path d="M1014.21 177.691H982.02L976.859 192.928H954.865L986.075 106.67H1010.4L1041.61 192.928H1019.37L1014.21 177.691ZM1008.81 161.472L998.117 129.893L987.549 161.472H1008.81Z" fill="#131313"/>
<path d="M1108.25 106.67V123.504H1085.39V192.928H1064.38V123.504H1041.53V106.67H1108.25Z" fill="#131313"/>
<path d="M1167.58 177.691H1135.38L1130.22 192.928H1108.23L1139.44 106.67H1163.77L1194.98 192.928H1172.74L1167.58 177.691ZM1162.17 161.472L1151.48 129.893L1140.91 161.472H1162.17Z" fill="#131313"/>
<path d="M560.243 279.752C563.355 280.243 566.182 281.513 568.721 283.561C571.342 285.609 573.39 288.148 574.865 291.179C576.421 294.21 577.199 297.446 577.199 300.886C577.199 305.228 576.093 309.16 573.882 312.682C571.67 316.123 568.434 318.867 564.175 320.915C559.997 322.881 555.041 323.864 549.307 323.864H517.36V238.221H548.078C553.894 238.221 558.85 239.204 562.946 241.17C567.042 243.054 570.113 245.634 572.161 248.911C574.209 252.187 575.233 255.873 575.233 259.969C575.233 265.048 573.841 269.267 571.056 272.625C568.352 275.902 564.748 278.278 560.243 279.752ZM528.541 275.206H547.341C552.583 275.206 556.638 273.977 559.505 271.519C562.372 269.062 563.806 265.662 563.806 261.321C563.806 256.979 562.372 253.58 559.505 251.122C556.638 248.665 552.502 247.436 547.095 247.436H528.541V275.206ZM548.324 314.648C553.894 314.648 558.236 313.338 561.348 310.716C564.461 308.095 566.018 304.45 566.018 299.78C566.018 295.029 564.379 291.302 561.103 288.599C557.826 285.814 553.444 284.421 547.955 284.421H528.541V314.648H548.324Z" fill="#131313"/>
<path d="M643.34 304.818H605.986L599.105 323.864H587.309L618.274 238.712H631.175L662.017 323.864H650.221L643.34 304.818ZM640.145 295.726L624.663 252.474L609.181 295.726H640.145Z" fill="#131313"/>
<path d="M730.019 238.221L702.126 291.548V323.864H690.945V291.548L662.93 238.221H675.34L696.474 281.595L717.608 238.221H730.019Z" fill="#131313"/>
<path d="M755.722 247.313V275.943H786.932V285.158H755.722V314.648H790.618V323.864H744.541V238.098H790.618V247.313H755.722Z" fill="#131313"/>
<path d="M858.088 323.864L837.691 288.845H824.175V323.864H812.993V238.221H840.64C847.111 238.221 852.559 239.326 856.982 241.538C861.487 243.75 864.846 246.74 867.058 250.508C869.269 254.276 870.375 258.577 870.375 263.41C870.375 269.308 868.655 274.509 865.215 279.015C861.856 283.52 856.777 286.51 849.978 287.985L871.481 323.864H858.088ZM824.175 279.875H840.64C846.702 279.875 851.248 278.4 854.279 275.451C857.31 272.421 858.825 268.407 858.825 263.41C858.825 258.331 857.31 254.399 854.279 251.614C851.33 248.829 846.784 247.436 840.64 247.436H824.175V279.875Z" fill="#131313"/>
<path d="M957.812 323.864H946.631L901.659 255.669V323.864H890.477V238.098H901.659L946.631 306.17V238.098H957.812V323.864Z" fill="#131313"/>
</svg>