<svg width="20" height="20" viewBox="0 0 20 20" fill="none" xmlns="http://www.w3.org/2000/svg">
<path d="M10.0003 1.66797C5.39616 1.66797 1.66699 5.39714 1.66699 10.0013C1.66699 14.6055 5.39616 18.3346 10.0003 18.3346C14.6045 18.3346 18.3337 14.6055 18.3337 10.0013C18.3337 5.39714 14.6045 1.66797 10.0003 1.66797ZM10.8337 15.8346H9.16699V14.168H10.8337V15.8346ZM12.5545 9.38047L11.8087 10.1471C11.2087 10.7471 10.8337 11.2513 10.8337 12.5013H9.16699V12.0846C9.16699 11.1638 9.54199 10.3305 10.142 9.7263L11.1795 8.6763C11.4795 8.3763 11.667 7.95964 11.667 7.5013C11.667 6.58047 10.9212 5.83464 10.0003 5.83464C9.07949 5.83464 8.33366 6.58047 8.33366 7.5013H6.66699C6.66699 5.65964 8.15866 4.16797 10.0003 4.16797C11.842 4.16797 13.3337 5.65964 13.3337 7.5013C13.3337 8.23464 13.0378 8.89714 12.5545 9.38047Z" fill="#131313"/>
</svg>
